<?xml version="1.0" encoding="UTF-8"?>
<!DOCTYPE svg PUBLIC "-//W3C//DTD SVG 1.1//EN" "http://www.w3.org/Graphics/SVG/1.1/DTD/svg11.dtd">
<!-- Creator: CorelDRAW X7 -->
<svg xmlns="http://www.w3.org/2000/svg" xml:space="preserve" width="25.4mm" height="25.4mm" version="1.1" style="shape-rendering:geometricPrecision; text-rendering:geometricPrecision; image-rendering:optimizeQuality; fill-rule:evenodd; clip-rule:evenodd"
viewBox="0 0 68 68"
 xmlns:xlink="http://www.w3.org/1999/xlink">
 <defs>
  <style type="text/css">
   <![CDATA[
    .fil0 {fill:white}
    .fil1 {fill:url(#id0)}
   ]]>
  </style>
  <linearGradient id="id0" gradientUnits="userSpaceOnUse" x1="62.083" y1="62.083" x2="6.1327" y2="6.1327">
   <stop offset="0" style="stop-opacity:1; stop-color:#F8BE3C"/>
   <stop offset="0.329412" style="stop-opacity:1; stop-color:#ED3237"/>
   <stop offset="0.588235" style="stop-opacity:1; stop-color:#EC268F"/>
   <stop offset="1" style="stop-opacity:1; stop-color:#718FC8"/>
  </linearGradient>
 </defs>
 <g id="Capa_x0020_1">
  <metadata id="CorelCorpID_0Corel-Layer"/>
  <path class="fil0" d="M68 57l0 -46c0,-6 -5,-11 -11,-11l-46 0c-6,0 -11,5 -11,11l0 46c0,6 5,11 11,11l46 0c6,0 11,-5 11,-11z"/>
  <path class="fil1" d="M11 0l46 0c6,0 11,5 11,11l0 46c0,6 -5,11 -11,11l-46 0c-6,0 -11,-5 -11,-11l0 -46c0,-6 5,-11 11,-11zm11 34l0 0 0 0c0,7 5,13 12,13 7,0 13,-6 13,-13 0,-7 -6,-12 -13,-12 -7,0 -12,5 -12,12zm25 -25l0 0 -26 0c-6,0 -12,6 -12,12l0 26c0,6 6,12 12,12l26 0c6,0 12,-6 12,-12l0 -26c0,-6 -6,-12 -12,-12zm-26 3l0 0c-5,0 -9,4 -9,9l0 26c0,5 4,9 9,9l26 0c5,0 9,-4 9,-9l0 -26c0,-5 -4,-9 -9,-9l-26 0zm29 4l0 0c-2,0 -3,1 -3,3 0,1 1,2 3,2 1,0 2,-1 2,-2 0,-2 -1,-3 -2,-3l0 0zm0 18l0 0c0,-9 -7,-16 -16,-16 -9,0 -16,7 -16,16 0,9 7,16 16,16 9,0 16,-7 16,-16l0 0z"/>
 </g>
</svg>
