<?xml version="1.0" encoding="UTF-8"?>
<!DOCTYPE svg PUBLIC "-//W3C//DTD SVG 1.1//EN" "http://www.w3.org/Graphics/SVG/1.1/DTD/svg11.dtd">
<!-- Creator: CorelDRAW X7 -->
<svg xmlns="http://www.w3.org/2000/svg" xml:space="preserve" width="49.8167mm" height="57.8648mm" version="1.1" style="shape-rendering:geometricPrecision; text-rendering:geometricPrecision; image-rendering:optimizeQuality; fill-rule:evenodd; clip-rule:evenodd"
viewBox="0 0 232 270"
 xmlns:xlink="http://www.w3.org/1999/xlink">
 <defs>
  <style type="text/css">
   <![CDATA[
    .fil0 {fill:black}
   ]]>
  </style>
 </defs>
 <g id="Capa_x0020_1">
  <metadata id="CorelCorpID_0Corel-Layer"/>
  <path class="fil0" d="M11 0c0,0 -41,81 35,82l-34 97c0,0 9,0 22,5 1,-3 3,-7 4,-10 2,-2 4,-5 6,-8 4,-6 5,-9 6,-9 -1,-1 -1,0 -1,0 0,0 0,0 0,0 1,-2 3,-4 4,-5l1 -1c1,1 1,1 2,2l0 -1c1,1 3,1 4,1l0 0c1,0 1,1 1,2 0,0 -2,1 -3,3 -1,1 -2,2 -3,3 0,1 0,1 0,2 0,0 -1,1 -1,2 -1,0 -1,0 -2,0 0,1 -1,1 -1,2 0,0 0,1 0,1 0,0 -1,1 -1,1 -1,0 -1,1 -1,3 -1,0 -1,-1 -2,-1l0 2c0,1 -1,2 -2,2 0,0 0,-1 0,-1 0,0 -1,-1 -1,-1 -1,0 -1,0 -1,1 0,0 1,0 1,0 0,0 0,0 0,0 0,1 0,1 0,2 -1,0 -1,-1 -1,-1 -1,0 -1,2 -3,2l1 1c-2,1 0,1 0,1 0,0 0,0 0,0 0,0 -1,0 -1,1l-1 0c-1,1 -2,2 -2,3l0 0c0,0 0,1 -1,2 3,1 6,3 9,5 1,-1 1,-1 2,-1 1,0 2,-1 3,-1 0,0 0,0 0,0 0,0 0,0 0,0 0,-1 1,-1 1,-1 1,0 1,0 1,0 0,0 0,-1 1,-1 0,0 2,0 2,0 0,0 1,0 1,-1l0 0 0 0c1,0 2,-1 4,-2 1,-1 2,-1 3,-1 0,0 0,0 -1,0 1,-1 4,-2 8,-4 0,0 0,0 0,0 0,0 0,0 1,0 -1,-1 0,-1 0,-1 1,0 1,0 1,0 0,0 0,-1 0,-1l0 0c0,0 0,-1 1,-1 1,-1 2,-1 3,-1 0,-1 1,-2 2,-2 1,-1 1,-1 1,-1 3,-3 5,-6 5,-8 0,-11 -17,-12 -27,-12 -3,0 -5,0 -7,0 -3,1 -4,1 -5,1l0 0c-1,0 -1,1 -2,1 -5,1 -8,2 -8,2 -2,1 -3,1 -3,2 0,0 0,0 0,0 1,0 1,-1 2,-1 0,0 0,0 0,0 0,0 1,0 1,0 0,0 0,0 0,0 -1,0 -1,0 -1,1 1,-1 2,-1 0,1 0,0 0,-1 0,-1 -1,0 -1,1 -1,1l0 1c0,0 1,1 1,1 -1,0 -2,1 -3,2l0 1c0,-1 -1,-1 -1,-1l0 2c0,0 -1,0 -2,0 0,1 -1,1 -2,1 -1,0 -1,-1 -2,-2 -1,-1 -2,-2 -2,-3 0,0 1,-2 3,-3 0,0 0,0 -1,2 3,-2 6,-3 9,-5 3,0 5,-1 5,-2 8,-2 14,-3 19,-3 1,0 1,0 2,1 0,0 0,-1 1,-1l2 0c0,0 1,0 1,0 3,0 7,1 13,3 7,3 11,6 11,11 0,2 0,3 0,5 -1,0 -1,0 -1,0l0 0c0,1 0,1 0,1 0,2 -2,5 -5,7 0,0 -1,1 -2,2 -1,1 -3,2 -4,2 0,1 0,1 -1,1 0,1 -1,1 -1,1 -1,1 -1,1 -2,2 0,0 0,0 0,0 0,0 0,0 -1,-1 0,0 0,1 0,1 0,1 0,1 -1,1 -1,0 -1,0 -2,0 0,0 0,1 0,1 -1,1 -1,1 -2,1l0 0 0 0c0,0 -1,0 -2,1 0,0 -1,1 -1,1 0,-1 -1,-1 -1,0 0,0 0,0 0,0 0,0 -1,-1 -1,-1 0,0 0,0 0,0 0,0 0,0 -1,1 0,0 -1,-1 -1,-1 0,1 -1,1 -1,1 -1,0 -1,0 -1,0 0,0 -1,0 -1,1 0,0 1,-1 1,0 0,1 -2,0 -2,0 0,0 -1,0 -1,0 0,0 0,0 0,0 0,0 1,-1 2,-1l-1 0c0,0 -1,0 -1,1l-1 -1c0,1 0,1 -1,1 0,0 0,0 0,1 0,0 0,0 0,0 0,0 -1,0 -1,0 -1,0 -1,0 -2,0 22,12 47,35 64,79l-41 -186c70,0 79,-69 79,-69l-69 0c4,2 40,29 -14,30 -42,-6 7,-49 1,-45l-57 0zm23 184l0 0c0,1 1,1 1,1 0,0 -1,0 -1,-1zm13 6l0 0c0,0 0,1 1,1 -1,0 -1,-1 -1,-1zm42 -10l0 0 0 0c0,-1 1,-1 1,-1l1 0c0,0 0,1 0,1 0,-1 0,-2 1,-2l0 1c0,0 -1,0 -1,1l0 0 1 1c-1,1 -1,1 -1,1l0 0c0,0 0,0 0,0l0 1 0 1 -1 0 1 -1c0,-1 -1,-1 -1,-1l0 1 -1 0 0 1 1 0 0 1 -1 -1c0,1 -1,2 -1,4 0,1 0,1 1,1l2 0c0,0 0,0 0,0 1,-1 2,-1 3,-2l0 2 0 0c0,2 0,2 -1,1 0,0 0,0 0,1l0 0 0 -1c-1,0 -1,1 0,1l-1 1 0 -1 0 1c0,0 -1,0 -1,1l-1 0c-2,0 -3,-1 -3,-2 0,-1 0,-1 0,-2 -1,-1 -1,-1 0,-2 1,-1 1,-1 0,-2 0,0 0,0 1,-1 0,0 0,-1 0,-1 0,0 0,-1 1,-1l0 0 0 0c1,0 1,-1 1,-2l-1 0zm4 2l0 0c-1,0 -1,0 -1,1 0,-1 0,-1 0,-2l0 0c0,0 0,0 0,0l1 1zm-1 -2l0 0 0 0 0 0c0,0 0,-1 0,-1l0 1z"/>
  <path class="fil0" d="M151 67c22,0 40,18 40,39 0,21 -18,39 -40,39 -23,0 -41,-18 -41,-39 0,-21 18,-39 41,-39zm-11 16l0 0c-4,0 -8,3 -8,7 0,4 4,8 8,8 5,0 8,-4 8,-8 0,-4 -3,-7 -8,-7z"/>
  <path class="fil0" d="M47 192c0,0 -1,0 -2,1 -1,0 -3,0 -4,0 -1,0 -1,0 -1,0 -3,1 -4,1 -3,1 0,0 -1,0 -1,0 0,-1 0,-1 -1,-1 0,0 0,0 0,1 0,0 -1,0 -1,0 0,0 -1,0 -1,1 -1,1 -1,1 -2,1 -2,0 -3,0 -4,0 -1,-1 -1,-1 -1,-1 0,0 0,0 -1,1 0,0 -1,0 -1,0 -2,0 -4,-1 -5,-2 -1,-1 -2,-2 -2,-3 0,-1 0,-2 1,-3 1,-1 3,-2 4,-2l0 0c-2,1 -3,3 -3,4 0,1 0,1 1,2 1,1 2,1 3,1 0,0 0,0 0,0 1,0 1,0 2,0 0,0 1,0 2,0 0,0 0,0 1,0 -1,0 0,0 2,0 1,0 2,-1 3,-1 1,0 2,0 2,0 0,0 -1,-1 -1,-2 -1,0 -1,-1 -1,-2 0,-1 0,-2 1,-4 1,1 1,1 2,1l0 0 0 1c-1,1 -1,2 -1,3 0,1 0,2 1,2 3,0 6,0 7,-1 1,0 2,0 2,0 1,0 2,1 3,1 0,0 0,0 0,0l0 0c0,0 -1,1 -1,1zm59 -32l0 0 0 0 0 0c0,1 -1,1 -1,2l0 1c-1,0 -1,1 -2,1l0 0c0,0 0,0 -1,1l0 1c0,0 0,0 -1,1l1 0 -1 1c-2,-1 -4,-2 -5,-4l1 0c1,-1 2,-1 4,-2l0 0c1,-1 3,-2 5,-3l0 1zm-4 21l0 0c0,1 -1,1 -1,2 -2,1 -2,2 -3,2l0 0c0,0 -1,0 -1,1l0 0c0,0 -1,1 -1,2 0,0 0,0 0,0 -1,1 -1,1 -1,1l-1 0 0 0 0 -2c3,-2 5,-3 5,-3 0,0 -1,0 -1,0 1,-1 2,-2 4,-3zm-10 -3l0 0 0 1c0,-1 0,-1 0,-1l1 0c-1,1 -1,1 -1,1l0 1 0 -1 1 1c0,0 0,0 -1,1l1 1 0 0c0,-1 0,-1 1,-1 0,0 0,0 0,-1 0,0 0,0 0,-1 1,-1 2,-1 3,-2 0,-1 1,-2 2,-4 0,0 -1,-1 -3,-2 -1,0 -3,-1 -4,-1l0 1c1,0 1,0 1,0 0,1 0,1 0,2l0 0c-1,0 -1,0 -1,0l1 1 -1 0c0,0 1,0 1,1 0,0 -1,0 -1,1l0 1c0,-1 0,-1 0,-1l0 0 0 0c0,1 0,1 0,2zm0 2l0 0 1 0 -1 0 0 0 0 0zm2 -2l0 0 -1 0c0,0 0,-1 1,-1l0 1zm33 -8l0 0 0 -1c0,-2 -1,-4 -4,-4 0,0 -1,0 -3,0l0 0c-1,1 -2,1 -2,1 0,1 -1,1 -1,1 0,0 0,0 0,0 -2,0 -3,1 -5,2 0,0 0,0 0,0 0,0 0,0 0,0 0,0 1,0 1,0 -2,1 -3,2 -3,2 0,0 0,0 0,0 0,0 0,0 0,0l2 -1c0,1 -1,1 -1,1l0 0 0 0c0,0 0,0 1,0 0,0 -1,0 -1,0 -1,0 -1,0 -1,0 0,0 -1,1 -1,1l0 0c-1,0 -1,0 -1,1 0,0 -1,1 -1,2l0 -1c-1,1 -1,1 -1,1l0 0 0 0 -1 1 0 -1c0,1 -1,3 -1,4 0,0 0,1 1,2 0,-1 0,-1 0,-1 0,0 0,1 1,1l-1 0c0,0 0,0 0,0 0,1 0,1 1,1 0,0 0,0 0,-1l1 1c0,0 0,0 1,0 0,1 0,1 0,1 0,0 0,0 0,-1l1 0c0,0 0,0 0,0 0,0 0,0 0,1l0 0c0,0 0,0 0,0 0,0 0,0 0,0l0 0 1 0 0 0c0,0 0,0 0,0 0,0 0,0 0,0l0 0 1 0c0,0 0,0 1,0l-1 1 0 0 1 -1 0 1 0 0 1 0c1,0 1,0 2,1 -4,1 -7,2 -9,4 -2,1 -3,1 -3,2 0,0 -1,0 -1,1 0,0 0,0 0,0 0,0 0,0 0,0l0 0c-1,1 -1,2 -1,2 0,2 0,2 1,2 0,0 0,0 0,0 0,0 0,-1 0,-1 1,-2 2,-3 3,-4l0 0 1 0c0,0 1,-1 1,-1l0 -1c1,0 1,0 2,0l0 -1c1,0 3,-1 6,-2l0 0c0,1 0,1 -1,2 0,1 -1,2 -3,4l0 0c-3,1 -4,2 -5,2 0,0 -1,0 -1,0 -1,-1 -1,-1 -1,-1 0,0 0,1 -1,1l1 1c1,0 1,0 2,0 0,0 1,0 1,0 1,0 1,0 1,0 0,0 0,0 0,0l0 -1c1,0 1,-1 2,-1l0 0c0,0 1,0 1,0l0 0 1 1c0,0 0,0 0,-1l0 0c0,0 0,0 0,0l1 0 0 0 1 -1c0,0 0,0 0,0 0,0 0,0 0,0l0 0c0,0 0,0 0,0l0 0c1,0 1,0 1,-1l0 1 -1 1c2,-1 3,-2 3,-2 0,0 0,0 0,0 0,-1 0,-1 0,-1l1 1c0,-1 0,-1 0,-1 0,0 0,0 0,0l1 0c0,-1 1,-1 1,-2 1,0 1,0 1,-1 0,0 0,0 0,0 -1,0 -1,0 -1,-1l0 1c0,0 0,0 0,-1 0,0 0,0 0,0l-1 0 0 -1c0,0 0,0 0,0 1,0 1,0 1,0 0,0 0,0 0,0 1,0 1,0 1,0l1 0c0,0 0,0 0,0 1,0 1,0 1,0 0,0 0,0 1,0 -1,0 0,0 0,0 0,0 1,0 1,0 0,0 0,0 0,0 0,-1 -1,-1 -4,-1 0,0 -1,0 -4,0l0 0 0 0c0,0 0,0 -1,-1 -2,0 -3,-1 -4,-1l0 1c0,-1 0,-1 -1,-1 0,0 0,0 0,0l0 0c-1,0 -2,0 -2,0l0 0c0,0 0,0 0,0 0,0 0,0 0,0 0,0 0,-1 0,-1 -1,0 -2,-1 -2,-2 0,0 1,-2 2,-3l1 0c0,-1 -1,-1 -1,-1 0,0 1,0 1,0 0,0 2,-1 5,-3 2,-2 5,-2 7,-2 2,0 2,0 2,2 0,0 0,1 0,1 0,1 -1,1 -1,1 0,1 1,1 1,1 0,0 1,0 1,-1 0,-1 1,-2 1,-3 0,0 0,0 0,0 0,0 1,-1 1,-1zm-2 -2l0 0c0,0 -2,-1 -2,-1l2 0 0 1zm0 1l0 0 0 1c0,0 -1,-1 -1,-1 0,0 0,0 0,0l1 0zm-7 -2l0 0 0 0 0 -1c0,1 0,1 0,1 0,0 0,0 0,0zm-4 2l0 0c0,1 -1,1 -1,1 0,-1 0,-1 1,-1 0,0 0,0 0,0l0 0zm-4 3l0 0 0 0c0,0 0,0 0,0 0,0 0,0 0,0 0,0 0,0 0,0l0 0zm9 15l0 0 -1 2 -1 0c0,-1 1,-2 2,-2zm-12 2l0 0 -1 1c0,0 0,0 0,0 0,0 0,0 0,0 0,-1 0,-1 0,-1l1 0zm40 -25l0 0c1,2 2,3 3,4 1,1 1,2 1,2 0,1 -1,2 -2,3 -1,1 -3,2 -4,2 0,1 0,1 0,1 -1,0 -1,1 -1,1 0,0 -2,1 -6,2 0,0 0,0 -1,0 0,1 -1,1 -2,1l0 0c0,0 0,0 0,0 0,0 0,0 -1,0l0 0c0,0 -1,0 -1,0 0,0 0,0 0,0 0,0 0,0 0,0l0 1 1 0 0 0c-1,0 -1,0 -1,0l-1 0 0 0 0 1c0,0 0,0 0,0l1 0 0 0c-1,1 -1,1 -2,2l0 0c-1,0 -1,0 -1,1l0 0 0 0c0,0 0,1 0,1 0,0 0,0 0,0 0,0 0,0 0,0l0 0c0,0 0,0 0,1 0,0 0,0 0,0l0 0c-1,1 -1,1 -1,1 0,1 1,1 2,1 1,0 3,-1 5,-2 4,-2 8,-5 12,-8l0 0 0 1c-1,0 -2,1 -3,2l1 1 -1 0c0,1 -1,1 -1,1l0 1 0 0c-1,0 -1,0 -1,1 0,0 0,0 0,-1 0,0 0,0 -1,0 0,0 0,0 0,0 0,0 0,0 -1,1 0,0 0,0 0,1l0 -1 -1 0c0,0 0,1 0,1l0 0c0,1 0,1 0,1 0,0 0,0 0,0l0 0c0,0 0,0 -1,0l0 1c-1,0 -1,0 -1,0 0,0 0,0 0,0 0,0 0,0 1,-1 0,0 0,0 0,-1 0,0 0,-1 0,-1l-1 0c0,1 0,1 0,2l0 0 0 0 0 0c0,1 0,1 -1,1l0 0c0,0 0,0 0,0 0,0 0,0 0,1 0,0 0,0 0,0 -1,0 -1,0 -1,0 0,0 0,-1 0,-1 0,0 0,0 0,0 0,0 0,0 0,0 0,0 0,0 0,1l-1 -1c0,0 0,1 0,1 0,0 0,0 0,0 1,0 1,0 1,0 0,0 0,0 0,0l0 0c0,0 -1,1 -1,2 0,0 -1,0 -1,0 0,0 0,0 0,0l0 0c0,0 0,-1 0,-1l0 0c0,-1 0,-1 0,-1 0,0 0,1 0,1 -1,1 -1,2 -1,2 -1,0 -1,-1 -2,-1 -1,-1 -1,-1 -2,-2l0 0c-1,0 -1,-1 -2,-1 0,-1 0,-2 0,-2 0,-1 0,-1 0,-1 0,-1 0,-1 0,-1l0 -1c0,-1 0,-2 1,-3 1,-2 2,-3 3,-4l0 0c1,-1 1,-2 2,-2l1 0 0 0c0,-1 1,-1 1,-2l-1 0 0 0c1,-1 2,-1 2,-2l1 0c4,-4 7,-7 10,-7 0,0 0,0 0,0zm-4 11l0 0c1,-1 2,-2 4,-3 0,0 1,-1 1,-2 0,-1 0,-1 -1,-2 -3,2 -6,4 -9,7 -2,1 -3,3 -3,3 0,0 0,0 0,0 2,0 4,-1 8,-3zm-5 -2l0 0c0,0 -1,-1 -2,-1l0 1 2 0zm7 10l0 0 0 0 -1 0 1 0zm-1 0l0 0 -1 1 1 0 0 -1zm-10 -7l0 0 -1 1 -2 2 2 0 1 -3zm-2 7l0 0c0,-1 -1,-1 -1,-1 0,0 -1,1 -1,1 0,0 0,0 0,0 0,0 0,0 0,0 0,0 0,0 1,0l1 0zm3 6l0 0c0,0 0,0 0,0 0,0 0,0 0,0 0,0 -1,0 -1,0 0,0 0,0 0,0 0,0 0,0 0,0 0,0 1,0 1,0 0,0 0,0 0,0zm43 -3l0 0 0 -1c-1,2 -2,3 -3,4 -1,1 -2,1 -3,1 -1,0 -1,0 -1,-1 0,0 0,-1 0,-3 0,0 0,-1 0,-1 0,0 0,0 0,0l0 0c0,-1 0,-1 0,-1 0,0 0,0 -1,0 0,0 0,0 0,0 0,0 0,0 0,0 0,0 0,0 0,0 0,0 0,0 0,0l1 -1 -1 -1c0,0 1,0 1,0 0,0 0,-1 0,-1 0,0 0,0 0,0 0,0 1,0 1,0 0,0 0,0 0,-1 0,0 0,0 0,0 0,-1 0,-2 0,-3 0,-1 0,-2 0,-2 0,-1 0,-1 -2,-1 -1,0 -3,1 -6,3 -3,3 -6,7 -10,10l0 -1c0,0 1,-1 2,-2 0,-2 1,-3 2,-5l1 0 0 -1 0 0 0 0c0,0 0,-1 0,-1l0 1c1,-1 1,-1 1,-1l0 0 0 -1 0 0c1,0 1,0 1,0 0,0 0,0 0,0l0 0 0 0c0,0 0,-1 1,-1 0,-1 0,-2 1,-3 -1,-1 -1,-2 -2,-3 -1,-1 -3,-2 -4,-2 0,0 -1,1 -3,1 1,0 1,0 1,0l0 0c1,0 1,1 1,1 1,1 1,2 1,2 0,4 -2,9 -5,16l0 0c-1,1 -1,2 -2,3 0,1 0,1 0,1l0 0 -1 1 0 0c1,0 1,0 1,-1 0,0 0,0 1,0l-1 1 1 0 1 -1 0 0c1,-1 2,-2 2,-2l0 -1 1 0c0,-1 1,-1 2,-2 1,-1 1,-1 2,-2 0,0 1,-1 2,-1 1,-1 2,-2 3,-2 1,-2 2,-2 2,-2 1,0 1,0 1,0 0,10 1,14 4,14l0 0c1,0 1,0 2,0 0,0 1,-1 2,-2 0,0 0,-1 1,-2 1,-1 2,-2 2,-3zm-19 -8l0 0c0,1 -1,1 -1,1 0,0 0,0 0,0 0,0 0,0 0,0 0,0 0,0 0,0l1 -1zm-6 11l0 0c-2,0 -2,2 -2,2l2 -2zm22 -30l0 0 1 0c1,0 2,-1 3,-1 1,-1 1,-2 1,-2 0,0 1,1 1,1 0,1 -1,2 -1,4 0,0 -1,1 -2,2l0 0c0,0 -1,0 -2,0l-1 -1c0,0 -1,0 -1,0 0,0 0,0 -1,0l0 0 0 0c0,-1 0,-1 -1,-1l0 0 -1 0 0 -1 0 1 -1 -1 1 -1c0,0 0,0 0,0 0,0 -1,0 -1,1l0 0 -1 0 0 0c0,0 -1,0 -2,0 0,0 0,0 0,0 0,0 -1,0 -1,0 -1,0 -2,1 -2,1 -1,0 -1,1 -1,2 0,0 -1,1 -1,1 0,0 -1,-1 -1,-1 0,-2 1,-3 2,-4 1,-2 3,-2 4,-2l1 0c0,0 1,0 1,0l0 1 1 -1c1,0 1,0 2,0l0 1c1,0 1,0 1,0 1,0 2,0 2,1zm30 21l0 0c0,0 0,0 0,1l0 0c0,0 -1,0 -1,0 0,0 0,0 0,0l-1 0c1,0 1,-1 1,-1l-1 -1c0,1 0,1 0,2 0,0 0,0 0,0 0,0 0,0 0,0l0 1 0 1c0,0 0,0 0,0 0,0 0,0 0,1l-1 -1 0 0c-1,0 -1,0 -1,0 0,0 0,0 0,0l-1 0 0 0c0,0 1,0 1,0l-1 1c0,0 1,0 1,0 0,0 0,0 0,0 0,0 0,0 0,0 0,0 0,0 0,0 -1,1 -2,2 -2,3l-1 0c0,0 -1,1 -1,1l0 0 0 0 -1 0 0 0c0,0 -1,0 -1,0l0 0c-1,0 -1,0 -1,1 0,0 0,0 0,0 0,0 0,0 0,0 0,1 -1,1 -1,1 0,0 0,0 0,0 0,0 0,0 0,0 0,0 -1,0 -1,1 0,0 0,0 -1,0l0 0c0,0 1,-1 1,-1 0,0 -1,0 -1,0l0 0c0,0 0,0 0,0 0,0 0,0 0,0 0,0 0,0 0,0 -1,0 -1,0 -1,0 0,0 0,0 1,0 0,0 0,1 0,1 0,0 0,0 0,0l-1 0c0,0 0,0 0,0l0 0c0,0 -1,0 -1,1 0,0 -1,0 -1,0 -3,0 -4,-1 -6,-2 -1,-1 -2,-3 -2,-5 0,-1 0,-2 1,-3l0 -1 -1 -1c0,-1 0,-2 0,-3 0,-3 4,-6 11,-7l1 0 0 0 0 0 1 0 1 0c4,0 7,0 9,2 2,1 3,3 3,5 0,0 0,1 -1,3zm-19 8l0 0c3,0 6,-2 9,-5 4,-2 5,-5 5,-7 0,-2 -2,-4 -5,-5l-1 0 -3 0c-2,0 -4,1 -4,1l-1 1c0,0 -1,0 -2,1 -1,1 -1,2 -1,2 -1,1 -1,2 -2,3l1 1c2,-2 5,-4 9,-6 0,0 1,-1 1,-1l1 1c-1,0 -2,0 -2,0l0 1c-3,1 -4,2 -5,2 -1,1 -2,3 -3,4 1,1 2,1 3,2l0 0 1 0 0 0c0,0 0,0 0,0l0 0 0 0 -1 0 0 0c-1,0 -2,0 -2,0 0,0 -1,0 -2,-1 -1,2 -1,3 -1,4 0,2 1,3 4,3l1 0 0 -1zm-3 -13l0 0c0,0 0,-1 0,-1 0,0 -1,1 -1,1l0 1c0,0 1,-1 1,-1zm13 10l0 0c-1,1 -2,1 -3,1 0,0 -1,1 -1,1l0 0 -1 1 0 0c3,-1 4,-2 5,-3zm36 -15l0 0 0 -1c0,-2 -1,-4 -4,-4 0,0 -1,0 -3,0l0 0c-1,1 -1,1 -2,1 0,1 0,1 -1,1 0,0 0,0 0,0 -2,0 -3,1 -5,2 0,0 0,0 0,0 0,0 0,0 0,0 0,0 1,0 1,0 -2,1 -3,2 -3,2 0,0 0,0 0,0 0,0 0,0 0,0l2 -1c0,1 0,1 -1,1l0 0 0 0c0,0 0,0 1,0 0,0 -1,0 -1,0 -1,0 -1,0 -1,0 0,0 -1,1 -1,1l0 0c0,0 -1,0 -1,1 0,0 -1,1 -1,2l0 -1c0,1 -1,1 -1,1l0 0 0 0 -1 1 0 -1c0,1 -1,3 -1,4 0,0 0,1 1,2 0,-1 0,-1 0,-1 0,0 0,1 1,1l0 0c-1,0 -1,0 -1,0 0,1 0,1 1,1 0,0 0,0 0,-1l1 1c0,0 0,0 1,0 0,1 0,1 0,1 0,0 0,0 0,-1l1 0c0,0 0,0 0,0 0,0 0,0 0,1l0 0c0,0 0,0 0,0 0,0 0,0 0,0l1 0 0 0 0 0c0,0 0,0 0,0 0,0 0,0 0,0l0 0 1 0c0,0 0,0 1,0l-1 1 1 0 0 -1 0 1 0 0 1 0c1,0 1,0 2,1 -4,1 -7,2 -9,4 -2,1 -3,1 -3,2 0,0 0,0 -1,1 0,0 0,0 0,0 0,0 0,0 0,0l0 0c-1,1 -1,2 -1,2 0,2 0,2 1,2 0,0 1,0 1,0 0,0 -1,-1 -1,-1 1,-2 2,-3 3,-4l0 0 1 0c0,0 1,-1 1,-1l1 -1c0,0 0,0 1,0l0 -1c1,0 3,-1 6,-2l0 0c0,1 0,1 0,2 0,1 -2,2 -4,4l0 0c-3,1 -4,2 -5,2 0,0 -1,0 -1,0 0,-1 -1,-1 -1,-1 0,0 0,1 0,1l0 1c1,0 2,0 2,0 0,0 1,0 1,0 1,0 1,0 1,0 0,0 0,0 0,0l0 -1c1,0 1,-1 2,-1l0 0c1,0 1,0 1,0l0 0 1 1c0,0 0,0 0,-1l0 0c0,0 0,0 0,0l1 0 0 0 1 -1c0,0 0,0 0,0 0,0 0,0 0,0l0 0c0,0 0,0 0,0l0 0c1,0 1,0 1,-1l0 1 -1 1c2,-1 3,-2 3,-2 0,0 0,0 0,0 0,-1 0,-1 0,-1l1 1c0,-1 0,-1 0,-1 0,0 0,0 0,0l1 0c0,-1 1,-1 2,-2 0,0 0,0 0,-1 0,0 0,0 0,0 -1,0 -1,0 -1,-1l0 1c0,0 0,0 0,-1 0,0 0,0 0,0l-1 0 0 -1c0,0 0,0 1,0 0,0 0,0 0,0 0,0 0,0 0,0 1,0 1,0 1,0l1 0c0,0 0,0 0,0 1,0 1,0 1,0 0,0 0,0 1,0 0,0 0,0 0,0 1,0 1,0 1,0 0,0 0,0 0,0 0,-1 -1,-1 -4,-1 0,0 -1,0 -4,0l0 0 0 0c0,0 0,0 -1,-1 -2,0 -3,-1 -4,-1l0 1c0,-1 0,-1 0,-1 -1,0 -1,0 -1,0l0 0c-1,0 -1,0 -2,0l0 0c0,0 0,0 0,0 0,0 0,0 0,0 0,0 0,-1 0,-1 -1,0 -2,-1 -2,-2 0,0 1,-2 2,-3l1 0c0,-1 0,-1 0,-1 0,0 0,0 0,0 0,0 2,-1 5,-3 2,-2 5,-2 7,-2 2,0 3,0 3,2 0,0 -1,1 -1,1 0,1 -1,1 -1,1 0,1 1,1 1,1 1,0 1,0 1,-1 1,-1 1,-2 1,-3 0,0 0,0 0,0 0,0 1,-1 1,-1zm-1 -2l0 0c-1,0 -3,-1 -3,-1l2 0 1 1zm-1 1l0 0 0 1c0,0 -2,-1 -2,-1 0,0 1,0 1,-1l1 1zm-7 -1l0 0 0 0 0 -2c0,1 0,1 0,1 0,0 0,0 0,1zm-4 2l0 0c0,0 -1,0 -1,0 0,-1 0,-1 1,-1 0,0 1,0 1,0l-1 1zm4 18l0 0 0 1 -2 0c1,-1 2,-1 2,-1zm-11 1l0 0 -1 1c0,0 -1,0 -1,0 0,0 0,0 0,0 0,0 0,0 0,0l2 -1z"/>
 </g>
</svg>
