<?xml version="1.0" encoding="UTF-8"?>
<!DOCTYPE svg PUBLIC "-//W3C//DTD SVG 1.1//EN" "http://www.w3.org/Graphics/SVG/1.1/DTD/svg11.dtd">
<!-- Creator: CorelDRAW X7 -->
<svg xmlns="http://www.w3.org/2000/svg" xml:space="preserve" width="91.0301mm" height="95.0671mm" version="1.1" style="shape-rendering:geometricPrecision; text-rendering:geometricPrecision; image-rendering:optimizeQuality; fill-rule:evenodd; clip-rule:evenodd"
viewBox="0 0 1882 1966"
 xmlns:xlink="http://www.w3.org/1999/xlink">
 <defs>
  <style type="text/css">
   <![CDATA[
    .fil0 {fill:black}
   ]]>
  </style>
 </defs>
 <g id="Capa_x0020_1">
  <metadata id="CorelCorpID_0Corel-Layer"/>
  <path class="fil0" d="M941 1299c-107,0 -195,87 -195,194 0,0 -259,-231 0,-560 -329,182 -373,374 -373,374 0,0 -87,-326 187,-747 -338,217 -374,373 -374,373 0,0 -82,-415 187,-933 -1,-2 -394,459 -372,974 20,482 433,981 920,992 7,0 14,0 20,0 7,0 13,0 20,0 488,-11 900,-510 920,-992 22,-515 -371,-976 -372,-974 269,518 187,933 187,933 0,0 -36,-156 -373,-373 273,421 186,747 186,747 0,0 -44,-192 -373,-374 259,329 0,560 0,560 0,-107 -87,-194 -195,-194zm0 506l0 0c-23,0 -42,-190 -42,-213 0,-23 19,-41 42,-41 23,0 42,18 42,41 0,23 -19,213 -42,213zm37 -302l0 0c-6,-7 -9,-16 -9,-25 0,-1 0,-3 0,-4l-3 2c-6,3 -12,3 -14,-1l0 0 0 -1c-2,-3 0,-9 6,-12l29 -16 1 -1 71 -42c1,0 2,-1 4,-1l0 0c6,-4 12,-3 14,0 2,4 -1,10 -6,13l-48 27c14,6 24,20 24,36 0,22 -17,39 -39,39 -12,0 -23,-5 -30,-14zm-74 0l0 0c-7,9 -18,14 -30,14 -22,0 -39,-17 -39,-39 0,-16 10,-30 24,-36l-47 -27c-6,-3 -9,-9 -7,-13 2,-3 9,-4 14,0l1 0c1,0 2,1 3,1l71 42 2 1 28 16c6,3 9,9 7,12l-1 1 0 0c-2,4 -8,4 -14,1l-2 -2c0,1 0,3 0,4 0,9 -4,18 -10,25z"/>
 </g>
</svg>
