<?xml version="1.0" encoding="UTF-8"?>
<!DOCTYPE svg PUBLIC "-//W3C//DTD SVG 1.1//EN" "http://www.w3.org/Graphics/SVG/1.1/DTD/svg11.dtd">
<!-- Creator: CorelDRAW X7 -->
<svg xmlns="http://www.w3.org/2000/svg" xml:space="preserve" width="25.4mm" height="19.0535mm" version="1.1" style="shape-rendering:geometricPrecision; text-rendering:geometricPrecision; image-rendering:optimizeQuality; fill-rule:evenodd; clip-rule:evenodd"
viewBox="0 0 81 61"
 xmlns:xlink="http://www.w3.org/1999/xlink">
 <defs>
  <style type="text/css">
   <![CDATA[
    .fil6 {fill:#EDEEEF}
    .fil3 {fill:#E4E5E6}
    .fil4 {fill:#CACBCD}
    .fil0 {fill:#E5534A}
    .fil1 {fill:#E54F46}
    .fil5 {fill:#E6E5E5}
    .fil2 {fill:#D54041}
   ]]>
  </style>
 </defs>
 <g id="Capa_x0020_1">
  <metadata id="CorelCorpID_0Corel-Layer"/>
  <g id="_2852915447248">
   <path class="fil0" d="M10 61l0 -44 -10 -10 0 49c0,3 2,5 5,5l5 0z"/>
   <path class="fil1" d="M72 14l9 -7 0 -2c0,-3 -2,-5 -5,-5l-2 0 -2 2 -31 23 -31 -23 -3 -2 -2 0c-3,0 -5,2 -5,5l0 2 10 7 22 17 9 6 8 -6 23 -17z"/>
   <path class="fil2" d="M76 61c3,0 5,-2 5,-5l0 -49 -9 7 0 47 4 0z"/>
   <polygon class="fil2" points="0,7 10,17 10,14 "/>
   <polygon class="fil3" points="10,61 34,42 10,17 "/>
   <polygon class="fil4" points="10,17 34,42 41,37 32,31 10,14 "/>
   <polygon class="fil5" points="34,42 54,61 72,61 72,14 49,31 41,37 "/>
   <polygon class="fil6" points="10,61 54,61 34,42 "/>
   <polygon class="fil5" points="41,25 72,2 74,0 72,0 10,0 7,0 10,2 "/>
  </g>
 </g>
</svg>
