<?xml version="1.0" encoding="UTF-8"?>
<!DOCTYPE svg PUBLIC "-//W3C//DTD SVG 1.1//EN" "http://www.w3.org/Graphics/SVG/1.1/DTD/svg11.dtd">
<!-- Creator: CorelDRAW X7 -->
<svg xmlns="http://www.w3.org/2000/svg" xml:space="preserve" width="56.2332mm" height="57.8648mm" version="1.1" style="shape-rendering:geometricPrecision; text-rendering:geometricPrecision; image-rendering:optimizeQuality; fill-rule:evenodd; clip-rule:evenodd"
viewBox="0 0 296 305"
 xmlns:xlink="http://www.w3.org/1999/xlink">
 <defs>
  <style type="text/css">
   <![CDATA[
    .fil0 {fill:black}
   ]]>
  </style>
 </defs>
 <g id="Capa_x0020_1">
  <metadata id="CorelCorpID_0Corel-Layer"/>
  <g id="_2208106930416">
   <path class="fil0" d="M13 0c0,0 -47,91 39,93l-38 109c0,0 10,1 24,6 1,-4 4,-9 5,-11 2,-3 4,-6 7,-10 4,-6 6,-10 6,-10 0,-1 -1,0 -1,0 0,0 0,0 0,0 2,-2 3,-4 5,-6l1 0c1,0 1,1 2,2l0 -1c1,0 4,1 4,1l0 0c2,0 2,1 2,1 0,1 -2,2 -3,4 -1,2 -3,3 -4,4 0,0 0,1 0,2 0,1 -1,1 -2,2 0,0 -1,0 -1,1 -1,0 -1,1 -1,1 0,1 0,1 -1,2 0,0 0,0 -1,1 0,0 0,1 -1,3 0,0 -1,-1 -2,0l0 2c0,1 -1,1 -2,1 -1,0 0,0 0,-1 -1,0 -1,0 -1,-1 -1,1 -1,1 -1,1 0,0 0,0 1,0 0,0 0,1 -1,1 1,1 1,0 0,1 0,0 0,0 0,0 -1,0 -1,2 -3,2l0 1c-1,1 0,1 0,1 0,0 0,0 0,0 0,0 0,0 -1,1l-1 1c-1,1 -2,1 -2,2l0 0c0,1 -1,2 -1,3 3,1 7,3 10,5 1,0 1,-1 2,-1 1,0 2,0 4,-1 0,0 0,0 0,0 0,0 0,0 0,0 0,-1 0,-1 1,-1 0,0 0,0 1,0 0,0 -1,-1 1,-1 0,0 2,0 2,0 0,0 1,0 2,-1l-1 0 0 0c2,-1 3,-1 5,-2 1,-1 2,-2 3,-2 0,0 0,0 0,1 1,-1 3,-3 8,-5 0,0 0,0 0,0 0,0 0,0 1,0 -1,-1 0,-2 0,-1 1,0 2,0 2,-1 0,0 0,0 0,0l-1 0c0,-1 1,-1 2,-2 1,0 2,-1 3,-1 0,-1 1,-2 2,-2 1,0 1,-1 1,-2 4,-2 5,-5 5,-8 0,-12 -19,-14 -30,-14 -3,0 -5,0 -8,1 -3,0 -5,1 -5,1l-1 0c0,0 -1,0 -1,0 -7,2 -10,3 -10,3 -2,1 -3,1 -3,2 0,0 0,0 0,0 1,0 2,-1 2,-1 0,0 0,0 1,0 0,0 0,0 1,0 0,0 0,0 -1,0 0,0 0,0 0,1 0,0 1,-1 0,1 -1,0 -1,0 -1,-1 -1,0 -1,1 -1,2l0 0c0,1 1,1 1,2 -1,0 -2,1 -3,2l0 1c0,-1 -1,-1 -1,-1l0 2c-1,0 -1,0 -2,0 0,1 -1,1 -3,1 0,0 -1,0 -2,-2 -2,-1 -2,-2 -2,-3 0,-1 1,-2 3,-4 0,0 0,1 -1,2 3,-2 6,-3 10,-5 4,-1 5,-1 6,-2 9,-3 16,-4 22,-4 1,0 1,0 1,1 1,0 1,0 1,-1l3 0c0,0 1,0 1,0 3,0 8,1 15,3 8,4 12,8 12,13 0,2 0,4 0,5 -1,0 -1,0 -1,1l0 0c0,0 1,0 0,1 0,2 -2,5 -5,8 -1,0 -2,1 -3,2 -1,1 -3,2 -4,3 0,0 -1,0 -1,1 -1,0 -1,0 -2,1 -1,0 -1,1 -1,1 0,0 -1,1 -1,1 0,0 0,0 -1,-1 0,0 0,1 0,1 0,0 0,1 -1,1 -1,0 -1,0 -2,0 -1,0 0,1 0,1 -1,1 -2,1 -2,1l0 0 0 0c-1,0 -2,1 -3,1 0,1 -1,1 -1,1 0,-1 -1,-1 -1,0 0,0 0,0 0,0 -1,0 -1,0 -1,-1 0,0 0,0 0,0 0,0 0,0 -1,1 -1,0 -1,0 -2,0 0,0 0,0 -1,1 0,-1 0,-1 -1,-1 0,0 -1,1 -1,1 0,0 1,0 1,1 0,0 -2,-1 -2,-1 0,1 -1,1 -1,1 0,0 0,0 -1,0 1,-1 2,-1 3,-2l-1 0c0,0 -1,1 -1,1l-1 -1c-1,2 0,1 -1,1 -1,0 0,1 0,1 0,0 0,0 0,1 -1,0 -1,0 -2,-1 -1,0 -1,1 -1,1 24,13 53,39 71,89l-46 -210c79,0 89,-79 89,-79l-77 0c3,3 44,34 -16,35 -48,-7 8,-56 1,-51l-64 0zm25 208l0 0c1,0 1,0 1,1 0,-1 0,-1 -1,-1zm15 7l0 0c0,0 0,0 1,0 -1,0 -1,0 -1,0zm48 -12l0 0 0 0c0,0 0,-1 1,-1l0 0c0,0 0,1 1,1 0,-1 0,-2 1,-3l0 2c0,0 -1,1 -1,1l0 0 0 1c0,1 0,1 0,1l0 1c0,0 0,0 0,0l0 1 -1 1 0 0 0 -2c0,0 0,-1 0,-1l0 1 -1 1 0 1 0 0 0 0 0 0c-1,1 -2,2 -2,5 0,0 1,0 1,1l2 -1c1,0 1,0 1,0 1,-1 2,-1 3,-2l0 3 0 0c0,1 0,2 -1,0 0,1 0,1 0,1l0 0 0 0c-1,-1 -1,1 -1,1l0 0 0 0 -1 0c0,1 0,1 0,1l-1 1c-3,-1 -4,-1 -4,-2 0,-1 0,-2 0,-3 0,-1 0,-1 0,-2 1,-1 1,-1 1,-2 0,0 0,-1 0,-1 0,-1 0,-1 0,-1 0,-1 1,-1 1,-2l1 0 0 0c0,0 0,-1 1,-1l-1 -1zm4 2l0 0c-1,0 -1,1 -2,1 1,-1 1,-1 1,-2l0 1c0,-1 0,-1 0,-1l1 1zm-1 -2l0 0 0 0 0 0c0,0 0,0 0,-1l0 1z"/>
   <path class="fil0" d="M170 76c25,0 46,20 46,44 0,24 -21,43 -46,43 -25,0 -46,-19 -46,-43 0,-24 21,-44 46,-44zm-12 18l0 0c-5,0 -9,3 -9,8 0,5 4,8 9,8 5,0 9,-3 9,-8 0,-5 -4,-8 -9,-8z"/>
   <path class="fil0" d="M53 216c-1,1 -1,1 -2,1 -2,1 -3,1 -5,1 -1,0 -1,0 -1,0 -3,0 -4,1 -4,1 0,0 0,0 0,0 -1,-1 -1,-1 -1,-1 0,0 0,0 -1,0 0,1 0,1 -1,1 0,0 0,0 -1,1 -1,1 -1,1 -2,1 -2,0 -3,0 -4,0 -1,0 -2,-1 -1,-1 -1,0 -1,1 -2,1 0,0 -1,0 -1,0 -2,0 -4,0 -6,-2 -1,-1 -2,-2 -2,-3 0,-2 1,-3 2,-4 1,-1 2,-2 4,-2l0 0c-3,2 -4,3 -4,5 0,0 0,1 2,2 1,0 2,1 3,1 0,0 0,0 0,0 1,0 1,0 2,0 1,0 1,0 2,0 1,0 1,0 1,0 0,0 1,0 3,0 1,-1 2,-1 4,-1 1,0 1,0 1,-1 0,0 0,0 -1,-1 0,-1 -1,-2 -1,-2 0,-1 1,-3 1,-5 1,0 2,1 3,1l0 0 0 1c-1,1 -1,3 -1,4 0,0 0,1 0,2 4,0 7,-1 8,-1 1,0 2,-1 3,-1 1,1 2,1 4,2 0,0 0,0 0,0l0 0c-1,0 -2,0 -2,0zm67 -36l0 0 -1 0 0 1c0,0 0,1 -1,2l0 1c0,0 -1,1 -1,1l-1 0c0,0 0,0 -1,1l1 1c-1,0 -1,0 -1,1l0 1 -1 0c-3,0 -5,-2 -5,-4l1 0c0,0 2,-1 4,-2l0 0c1,-1 3,-2 6,-4l0 1zm-5 24l0 0c0,1 -1,2 -2,3 -1,1 -2,1 -2,2l0 0c-1,0 -1,0 -1,1l0 0c-1,0 -1,1 -1,2 0,0 -1,0 -1,1 0,0 -1,0 -1,1l-1 0 0 0 0 -3c3,-2 5,-3 5,-4 0,0 0,1 0,1 1,-1 2,-2 4,-4zm-11 -4l0 0 0 2c0,-1 0,-1 0,-1l0 0c0,1 0,1 0,1l0 1 0 0 1 0c0,0 -1,1 -1,1l1 1 0 0c0,0 0,-1 1,-1 0,0 0,0 0,0 1,-1 1,-1 1,-1 0,-2 1,-2 2,-3 1,-1 2,-3 3,-5 0,0 -1,-1 -4,-2 -1,0 -3,-1 -4,-1l0 1c1,0 1,0 1,1 0,0 0,0 0,1l0 0c-1,0 -1,0 -1,1l1 0 -1 1c0,0 0,0 0,0 0,0 0,1 -1,1l0 1c0,0 1,0 1,-1l0 1 0 0c0,1 0,1 0,1zm0 3l0 0 1 0 -1 0 0 0 0 0zm2 -2l0 0 -1 0c0,0 0,-1 1,-1l0 1zm38 -9l0 0 0 -1c0,-3 -2,-5 -5,-5 -1,0 -2,1 -3,1l-1 0c-1,0 -1,0 -2,1 0,0 0,0 -1,0 0,0 0,0 0,0 -2,1 -4,2 -6,3 0,0 0,0 0,0 0,0 0,0 1,0 0,0 0,0 0,0 -2,1 -3,2 -3,2 0,0 0,0 0,0 0,0 0,0 0,0l2 -1c0,0 0,1 0,1l-1 0 0 0c1,0 1,0 1,0 0,0 0,1 -1,1 0,0 -1,-1 -1,-1 0,1 -1,1 -1,1l0 0c-1,0 -1,1 -1,1 0,1 -1,1 -2,2l0 0c0,0 0,0 -1,1l0 0 0 0 0 0 0 0c-1,1 -1,2 -1,4 0,0 0,1 0,2 0,0 0,0 0,0 0,0 1,0 1,0l0 0c0,0 0,0 0,1 0,0 0,0 0,0 0,0 1,0 1,0l1 0c0,0 0,1 0,1 0,0 1,0 1,0 0,0 0,0 0,0l1 0c0,0 0,0 0,0 0,0 0,0 0,0l0 0c0,0 0,0 0,0 0,0 0,1 0,1l1 -1 0 1 0 0c0,0 0,0 0,0 0,-1 0,-1 0,-1l1 1 0 -1c0,0 1,1 1,1l0 0 0 0 0 0 1 0 0 1 0 0c1,0 2,0 2,1 -3,1 -7,2 -9,4 -3,1 -4,2 -4,2 0,1 0,1 -1,1 0,1 0,1 0,1 0,0 0,0 0,0l0 0c-1,1 -1,2 -1,2 0,2 0,3 1,3 1,0 1,-1 1,-1 0,0 0,0 -1,-1 1,-2 2,-3 4,-4l0 0 0 -1c1,0 2,0 2,-1l0 0c1,0 1,-1 2,-1l0 0c1,-1 3,-2 7,-4l0 1c0,1 0,1 -1,2 0,1 -1,2 -4,4l0 0c-3,2 -4,3 -5,3 -1,0 -1,0 -2,0 0,-1 0,-1 0,-1 -1,0 -1,0 -1,1l0 1c1,0 2,0 2,0 1,0 1,0 2,0 0,0 1,0 1,0 0,0 0,0 0,0l0 -1c1,-1 1,-1 2,-1l1 0c0,0 0,0 0,0l0 0 1 1c0,0 1,0 1,-1l-1 0c0,0 1,0 1,0l0 0 1 0 0 -1c0,0 1,0 1,0 0,0 0,0 0,0l0 0c0,0 0,-1 0,-1l0 0c0,0 1,0 1,0l0 0 -1 2c2,-1 3,-2 3,-3 0,0 0,0 0,0 0,0 0,0 0,-1l1 1c0,0 1,0 1,0 0,-1 -1,-1 -1,-1l1 0c1,-1 1,-1 2,-1 1,-1 1,-1 1,-1 0,-1 0,-1 -1,-1 0,0 0,0 0,-1l-1 1c0,0 0,0 0,-1 0,0 0,0 0,0l0 0 -1 -1c0,0 1,0 1,0 0,0 0,0 0,0 1,0 1,0 1,0 0,0 0,0 1,0l1 0c0,0 0,0 0,0 0,0 1,0 1,0 0,0 0,0 1,0 -1,0 0,0 0,0 0,0 1,0 1,0 0,0 0,0 0,0 0,-1 -1,-2 -4,-2 0,0 -2,1 -5,1l0 0 0 0c0,0 0,-1 -1,-1 -2,-1 -4,-1 -5,-1l0 0c0,0 0,0 0,0 0,0 -1,0 -1,0l1 -1c-2,0 -2,0 -3,0l0 0c0,0 0,0 0,0 0,0 0,0 0,0 0,0 0,0 0,0 -2,-1 -2,-2 -2,-3 0,0 1,-2 2,-4l1 1c0,-2 0,-2 0,-2 0,0 0,0 0,0 0,0 2,-1 5,-3 3,-2 6,-3 9,-3 2,0 2,1 2,3 0,0 0,1 0,2 -1,0 -1,1 -1,1 0,0 0,0 1,0 0,0 1,0 1,0 1,-2 1,-3 1,-3 0,-1 0,-1 0,-1 0,-1 1,-1 2,-1zm-3 -2l0 0c0,0 -2,-1 -2,-1l2 -1 0 2zm0 1l0 0 0 1c0,0 -1,-1 -1,-1 0,0 0,-1 0,-1l1 1zm-7 -3l0 0 -1 1 1 -1c0,0 0,0 0,0 0,0 0,0 0,0zm-5 3l0 0c-1,0 -1,1 -2,1 1,-1 1,-1 1,-1 0,0 1,0 1,0l0 0zm-5 3l0 0 1 0c-1,1 -1,1 -1,1 0,0 0,-1 0,-1 0,0 0,0 0,0l0 0zm10 17l0 0 -1 3 -1 -1c0,0 2,-1 2,-2zm-14 2l0 0 0 1c0,0 -1,0 -1,0 0,0 0,0 0,0 0,0 0,0 0,0l1 -1zm46 -27l0 0c2,1 3,2 4,4 0,1 1,1 1,2 0,1 -1,2 -3,3 -1,2 -3,3 -4,3 0,0 -1,0 -1,1 0,0 0,0 0,1 -1,0 -3,1 -7,2 0,1 -1,1 -1,1 -1,0 -1,0 -2,0l0 0c0,0 0,0 0,0 -1,0 -1,0 -2,1l0 -1c0,0 0,0 -1,0 0,0 0,0 0,0 0,0 0,0 0,1l0 0 1 0 0 0c0,1 -1,1 -1,1l-1 -1 0 0 0 1c0,0 0,0 0,1l1 -1 0 1c-1,0 -1,1 -2,1l0 0c-1,0 -1,1 -1,2l0 0 0 0c0,0 0,0 0,1 0,0 0,0 0,0 0,0 0,0 0,0l0 0c0,0 0,0 0,1 0,0 0,0 0,0l0 0c-1,1 -1,1 -1,2 0,0 0,0 2,0 1,0 3,0 6,-2 4,-2 8,-5 13,-9l0 0 0 1c-1,1 -2,2 -3,3l0 0 0 1c-1,0 -1,1 -1,1l-1 1 0 0c0,0 0,0 -1,1 0,0 0,0 0,-1 0,0 0,-1 0,-1 0,0 0,0 -1,1 0,0 0,0 0,0 0,1 -1,1 -1,2l0 -1 0 0c-1,0 -1,1 -1,1l0 1c0,0 0,0 0,0 0,0 0,1 0,1l0 -1c0,0 0,0 -1,0l0 1c-1,1 -1,1 -1,1 0,0 0,0 0,0 0,-1 0,-1 1,-2 0,0 0,0 0,-1 0,0 0,-1 0,-1l-1 0c0,1 0,1 0,2l0 0 0 0 0 1c0,0 -1,0 -1,0l0 0c0,0 0,0 0,0 0,0 0,1 0,1 0,0 0,0 -1,0 0,0 0,0 0,0 0,0 0,0 0,0 0,0 0,0 0,0 0,-1 0,-1 0,-1 -1,0 -1,0 -1,1l0 0c0,0 0,0 0,0 0,0 0,0 0,0 0,0 0,0 0,0 0,0 0,0 0,0l0 0c0,1 0,2 -1,3 0,0 0,0 0,0 0,0 0,0 -1,0l0 0c1,0 1,-1 1,-1l0 -1c0,0 0,0 0,0 -1,0 -1,0 -1,1 -1,1 -1,2 -1,2 -1,0 -1,-1 -2,-1 -1,-1 -2,-2 -2,-3l-1 1c0,-1 -1,-1 -1,-2 -1,-1 -1,-2 -1,-2 0,-1 0,-1 0,-1 0,-1 0,-1 0,-2l0 0c0,-1 1,-2 1,-4 1,-2 2,-3 4,-5l0 1c1,-1 1,-2 3,-3l0 0 0 0c1,0 1,-1 2,-1l-1 -1 0 0c1,-1 1,-1 2,-2l1 0c4,-5 8,-8 11,-8 0,0 0,0 0,1zm-5 12l0 0c2,-1 3,-2 4,-3 1,-1 2,-2 2,-3 0,-1 0,-2 -1,-2 -4,2 -7,5 -10,7 -2,2 -3,4 -3,4 0,0 0,0 0,0 1,0 4,-1 8,-3zm-6 -3l0 0c0,0 -1,-1 -1,-1l0 1 1 0zm8 12l0 0 0 -1 0 1 0 0zm-1 0l0 0 0 0 0 1 0 -1zm-10 -8l0 0 -2 0 -2 3 2 0 2 -3zm-3 7l0 0c0,0 -1,-1 -1,-1 -1,1 -1,1 -1,1 0,0 0,1 0,1 0,0 0,0 0,0 0,0 0,0 0,0l2 -1zm3 7l0 0c0,0 0,0 0,0 0,0 0,0 0,0 0,0 0,0 0,0 -1,0 -1,0 -1,0 0,0 0,1 1,1 0,0 0,0 0,0 0,0 0,0 0,-1zm49 -4l0 0 0 0c-1,2 -2,3 -3,4 -2,1 -3,2 -4,2 -1,0 -1,-1 -1,-2 0,0 0,-1 0,-3 0,0 0,-1 0,-1 0,0 0,0 0,-1l0 0c0,0 0,0 0,0 0,0 0,0 -1,0 0,0 0,0 0,0 0,0 0,0 0,0 0,0 0,0 0,0 0,0 0,-1 0,-1l1 0 -1 -1c0,0 1,-1 1,-1 0,0 0,0 0,0 0,-1 0,-1 0,-1 1,0 1,0 1,0 0,0 0,0 0,0 0,-1 0,-1 0,-1 0,-1 0,-2 0,-3 0,-1 1,-2 1,-2 0,-1 -1,-2 -3,-2 -2,0 -4,1 -7,4 -3,4 -7,7 -11,11l0 -1c0,0 1,-1 2,-3 0,-2 1,-3 3,-4l0 -1 0 -1 0 0 0 0c0,-1 0,-1 1,-1l0 0c0,0 0,0 0,-1l1 1 0 -1 0 0c1,0 1,0 1,0 0,0 0,0 0,0l-1 0 0 0c1,-1 1,-1 2,-1 0,-2 0,-3 1,-4 -1,-1 -1,-2 -3,-3 -1,-1 -2,-2 -4,-2 0,0 -1,0 -3,0 1,1 1,1 1,1l0 0c1,0 1,0 2,1 0,1 0,2 0,3 0,4 -2,10 -5,17l0 0c-1,1 -2,2 -3,4 0,0 0,1 0,1l0 0 0 0 0 1c0,0 0,-1 0,-1 0,0 1,0 1,0l0 0 0 1 1 -1 1 0c1,-1 1,-2 2,-3l0 0 1 -1c1,0 1,-1 2,-2 1,-1 2,-2 2,-2 1,0 2,-1 3,-1 1,-2 2,-3 3,-3 2,-2 3,-2 3,-2 0,0 0,0 0,0 0,11 2,16 5,16l0 0c1,0 1,0 2,0 0,0 1,-1 2,-2 0,-1 1,-1 2,-3 1,-1 2,-2 2,-4zm-22 -8l0 0c0,1 0,1 -1,1 0,0 0,0 0,0 0,0 0,0 0,0 0,0 0,0 0,0l1 -1zm-7 12l0 0c-1,0 -1,2 -1,3l1 -3zm26 -34l0 0 0 0c2,0 3,0 4,-1 1,-1 1,-1 1,-1 1,0 1,0 1,0 0,1 -1,3 -1,5 0,0 -1,1 -2,2l0 0c0,0 -1,0 -3,0l-1 -1c0,0 0,0 0,0 -1,0 -1,0 -1,0l-1 0 0 0c0,-1 0,-1 0,-1l-1 -1 -1 0 0 0 0 0 -1 0 1 -1c0,0 0,0 0,0 0,0 -1,0 -1,0l0 1 -1 -1 0 1c-1,-1 -1,-1 -2,-1 0,0 0,0 -1,0 0,1 0,1 -1,1 -1,0 -2,0 -2,0 -1,1 -1,2 -1,3 -1,0 -1,1 -1,1 0,0 -1,0 -1,-1 0,-2 1,-3 2,-5 1,-1 3,-2 5,-2l0 0c1,0 2,0 2,0l0 2 1 -2c1,1 1,1 2,1l0 0c1,0 1,0 2,0 0,0 1,1 2,1zm34 24l0 0c0,0 0,0 -1,1l0 1c0,0 0,0 -1,-1 0,0 0,0 0,0l0 0c0,0 0,-1 0,-1l0 0c-1,0 -1,1 -1,1 0,0 0,0 0,0 0,0 0,0 0,0l0 2 0 0c0,0 0,0 0,1 0,0 0,0 0,0l-1 0 0 -1c-1,0 -1,0 -1,0 0,0 0,0 -1,0l0 0 0 0c0,1 0,1 1,1l-1 0c0,0 0,0 0,0 1,0 1,0 1,0 0,0 0,1 0,1 0,0 0,0 0,0 -1,1 -2,2 -3,3l0 0c-1,0 -1,1 -2,1l0 1 0 0 0 -1 -1 0c0,0 0,0 -1,0l0 0c0,0 -1,1 -1,1 0,0 0,0 0,0 0,0 0,0 0,0 0,1 -1,1 -1,2 0,0 0,0 0,0 0,-1 0,-1 0,-1 -1,0 -1,1 -1,2 0,0 -1,0 -1,0l0 0c0,-1 0,-1 0,-1 0,0 0,0 0,0l0 0c0,-1 0,-1 -1,-1 0,0 0,0 0,0 0,0 0,0 0,0 0,1 0,1 0,1 0,0 0,0 0,0 0,0 0,0 0,0 0,0 0,1 0,1l-1 0c0,0 0,0 0,0l0 0c0,0 0,0 -1,0 0,0 -1,1 -1,1 -3,0 -5,-1 -6,-3 -2,-1 -3,-3 -3,-5 0,-1 0,-3 1,-4l1 -1 -2 -1c0,-1 0,-2 0,-3 0,-4 4,-7 13,-8l0 0 1 0 0 0 1 -1 1 0c4,0 8,1 10,3 2,1 4,3 4,5 0,1 -1,2 -1,4zm-22 10l0 0c3,-1 7,-3 10,-6 4,-3 6,-6 6,-9 0,-2 -2,-4 -6,-5l-1 0 -3 0c-3,0 -4,1 -5,2l-1 0c-1,0 -1,1 -2,2 -1,1 -2,1 -2,1 -1,1 -1,3 -1,4l0 1c2,-2 6,-5 11,-7 0,0 0,0 1,0l0 0c0,0 -1,1 -2,1l1 0c-3,2 -5,3 -6,3 -2,1 -3,3 -4,4 1,1 3,2 4,2l0 0 1 0 0 0c0,0 0,0 0,1l0 0 0 0 -1 0 0 0c-1,0 -2,0 -3,0 0,-1 0,-1 -1,-1 -1,1 -2,3 -2,4 0,2 2,3 5,3l1 0 0 0zm-3 -16l0 0c0,0 0,0 0,0 0,0 -2,1 -2,1l0 1c0,0 2,-2 2,-2zm14 12l0 0c-1,1 -2,1 -4,1 0,0 0,1 0,1l-1 0 0 1 0 0c3,-1 4,-2 5,-3zm41 -17l0 0 0 -1c0,-3 -1,-5 -4,-5 -1,0 -2,1 -4,1l0 0c-1,0 -2,0 -2,1 -1,0 -1,0 -1,0 0,0 0,0 0,0 -2,1 -4,2 -6,3 0,0 0,0 0,0 0,0 0,0 0,0 0,0 1,0 1,0 -2,1 -4,2 -4,2 0,0 0,0 1,0 0,0 0,0 0,0l2 -1c0,0 -1,1 -1,1l0 0 0 0c0,0 0,0 1,0 0,0 -1,1 -1,1 -1,0 -1,-1 -1,-1 -1,1 -1,1 -1,1l-1 0c0,0 0,1 0,1 -1,1 -1,1 -2,2l0 0c0,0 0,0 -1,1l0 0 0 0 0 0 -1 0c0,1 -1,2 -1,4 0,0 0,1 1,2 0,0 0,0 0,0 0,0 0,0 1,0l0 0c-1,0 -1,0 -1,1 0,0 1,0 1,0 0,0 0,0 1,0l0 0c0,0 0,1 1,1 0,0 0,0 0,0 1,0 1,0 1,0l0 0c0,0 0,0 0,0 0,0 0,0 0,0l0 0c1,0 1,0 1,0 0,0 0,1 0,1l0 -1 0 1 0 0c1,0 1,0 1,0 0,-1 0,-1 0,-1l0 1 1 -1c0,0 0,1 1,1l-1 0 0 0 1 0 0 0 0 1 1 0c1,0 2,0 2,1 -4,1 -7,2 -10,4 -2,1 -3,2 -3,2 0,1 -1,1 -1,1 0,1 0,1 0,1 0,0 0,0 0,0l-1 0c0,1 0,2 0,2 0,2 0,3 1,3 0,0 0,-1 0,-1 0,0 0,0 0,-1 0,-2 2,-3 3,-4l0 0 1 -1c1,0 1,0 2,-1l0 0c0,0 1,-1 2,-1l0 0c0,-1 3,-2 6,-4l1 1c-1,1 -1,1 -1,2 0,1 -2,2 -4,4l-1 0c-2,2 -4,3 -5,3 0,0 -1,0 -1,0 0,-1 -1,-1 -1,-1 0,0 0,0 -1,1l1 1c1,0 2,0 2,0 1,0 1,0 1,0 1,0 1,0 1,0 1,0 1,0 1,0l0 -1c0,-1 1,-1 2,-1l0 0c0,0 1,0 1,0l0 0 1 1c0,0 0,0 0,-1l0 0c0,0 0,0 0,0l1 0 0 0 1 -1c0,0 0,0 0,0 0,0 0,0 0,0l0 0c0,0 0,-1 0,-1l1 0c0,0 0,0 0,0l0 0 -1 2c3,-1 4,-2 4,-3 0,0 0,0 -1,0 1,0 1,0 1,-1l0 1c1,0 1,0 1,0 0,-1 0,-1 -1,-1l2 0c0,-1 1,-1 2,-1 0,-1 1,-1 1,-1 -1,-1 -1,-1 -1,-1 0,0 -1,0 -1,-1l0 1c0,0 0,0 0,-1 0,0 0,0 0,0l-1 0 0 -1c0,0 0,0 0,0 1,0 1,0 1,0 0,0 0,0 0,0 1,0 1,0 1,0l1 0c0,0 1,0 1,0 0,0 0,0 0,0 1,0 1,0 1,0 0,0 0,0 1,0 0,0 0,0 1,0 0,0 0,0 0,0 0,-1 -2,-2 -5,-2 1,0 -1,1 -4,1l0 0 0 0c0,0 -1,-1 -1,-1 -3,-1 -4,-1 -5,-1l0 0c0,0 0,0 -1,0 0,0 0,0 0,0l0 -1c-1,0 -2,0 -2,0l0 0c0,0 0,0 0,0 -1,0 -1,0 -1,0 0,0 0,0 0,0 -1,-1 -2,-2 -2,-3 0,0 1,-2 3,-4l0 1c0,-2 0,-2 0,-2 0,0 0,0 1,0 0,0 2,-1 5,-3 3,-2 6,-3 8,-3 2,0 3,1 3,3 0,0 0,1 -1,2 0,0 0,1 0,1 0,0 0,0 1,0 0,0 0,0 1,0 0,-2 1,-3 1,-3 0,-1 0,-1 -1,-1 1,-1 2,-1 2,-1zm-2 -2l0 0c0,0 -2,-1 -3,-1l3 -1 0 2zm0 1l0 0 0 1c-1,0 -2,-1 -2,-1 0,0 0,-1 1,-1l1 1zm-8 -2l0 0 -1 0 1 -1c0,0 0,1 0,1 0,0 0,0 0,0zm-4 3l0 0c-1,0 -2,0 -2,0 0,-1 1,-2 1,-2 0,0 1,0 1,1l0 1zm4 20l0 0 0 2 -2 -1c0,0 2,-1 2,-1zm-13 1l0 0 -1 1c0,0 -1,1 -1,1 0,0 0,-1 0,-1 0,0 0,0 0,0l2 -1z"/>
   <path class="fil0" d="M265 162c-3,0 -6,3 -6,6 0,0 -9,-7 0,-18 -11,6 -13,12 -13,12 0,0 -2,-11 7,-24 -11,7 -13,12 -13,12 0,0 -2,-14 6,-31 0,0 -12,15 -12,32 1,16 14,32 30,33 1,0 1,0 1,0 0,0 1,0 1,0 16,-1 29,-17 30,-33 1,-17 -12,-32 -12,-32 9,17 6,31 6,31 0,0 -1,-5 -12,-12 9,13 6,24 6,24 0,0 -2,-6 -13,-12 9,11 0,18 0,18 0,-3 -2,-6 -6,-6zm0 16l0 0c-1,0 -1,-6 -1,-7 0,0 0,-1 1,-1 1,0 1,1 1,1 0,1 0,7 -1,7zm1 -10l0 0c0,0 0,0 0,0 0,0 0,0 0,-1l0 1c0,0 0,0 -1,0l0 0 0 0c0,-1 0,-1 1,-1l1 0 0 0 2 -2c0,0 0,0 0,0l0 0c0,0 1,0 1,0 0,0 0,0 -1,1l-1 0c0,1 1,1 1,2 0,0 -1,1 -2,1 0,0 0,0 -1,-1zm-2 0l0 0c0,1 -1,1 -1,1 -1,0 -1,-1 -1,-1 0,-1 0,-1 0,-2l-1 0c0,-1 0,-1 0,-1 0,0 0,0 0,0l0 0c0,0 0,0 0,0l3 2 0 0 1 0c0,0 0,0 0,1l0 0 0 0c0,0 -1,0 -1,0l0 -1c0,1 0,1 0,1 0,0 0,0 0,0z"/>
  </g>
 </g>
</svg>
