<?xml version="1.0" encoding="UTF-8"?>
<!DOCTYPE svg PUBLIC "-//W3C//DTD SVG 1.1//EN" "http://www.w3.org/Graphics/SVG/1.1/DTD/svg11.dtd">
<!-- Creator: CorelDRAW X7 -->
<svg xmlns="http://www.w3.org/2000/svg" xml:space="preserve" width="25.4mm" height="26.2036mm" version="1.1" style="shape-rendering:geometricPrecision; text-rendering:geometricPrecision; image-rendering:optimizeQuality; fill-rule:evenodd; clip-rule:evenodd"
viewBox="0 0 62 63"
 xmlns:xlink="http://www.w3.org/1999/xlink">
 <defs>
  <style type="text/css">
   <![CDATA[
    .fil1 {fill:#33CC66}
    .fil0 {fill:white}
   ]]>
  </style>
 </defs>
 <g id="Capa_x0020_1">
  <metadata id="CorelCorpID_0Corel-Layer"/>
  <g id="_2852921032384">
   <path class="fil0" d="M18 57l-18 6 6 -17c-3,-5 -5,-10 -5,-16 0,-16 14,-30 30,-30 17,0 31,14 31,30 0,17 -14,31 -31,31 -4,0 -9,-2 -13,-4z"/>
   <path class="fil1" d="M31 55c14,0 25,-11 25,-25 0,-14 -11,-25 -25,-25 -14,0 -25,11 -25,25 0,6 2,11 5,15l-2 7 -1 3 4 -1 6 -2c4,2 8,3 13,3zm14 -13c-6,4 -14,-2 -18,-6 -3,-3 -6,-6 -7,-10 -3,-5 -1,-8 1,-10 1,-1 1,-1 3,-1l1 0c0,0 3,5 4,6 0,2 -3,5 -3,5 2,8 11,10 11,10 0,0 1,-1 3,-2 1,-2 2,-1 2,-1l6 3c0,3 -1,5 -3,6z"/>
  </g>
 </g>
</svg>
